<?xml version="1.0" encoding="utf-8"?>
<svg version="1.1" xmlns:xlink="http://www.w3.org/1999/xlink" width="494px" height="246px" xmlns="http://www.w3.org/2000/svg">
  <g transform="matrix(1 0 0 1 -918 -611 )">
    <path d="M 918 611  L 1412 611  L 1412 857  L 918 857  L 918 611  " fill-rule="nonzero" fill="#cccccc" stroke="none" />
    <path d="M 935 628  L 1395 628  L 1395 840  L 935 840  L 935 628  " fill-rule="nonzero" fill="#ffffff" stroke="none" />
    <path d="M 1193.33 684.8  C 1182.998 684.8  1174.88 676.682  1174.88 666.35  C 1174.88 656.018  1182.998 647.9  1193.33 647.9  C 1203.662 647.9  1211.78 656.018  1211.78 666.35  C 1211.78 676.682  1203.662 684.8  1193.33 684.8  " fill-rule="nonzero" fill="#cccccc" stroke="none" />
    <path d="M 941 834  L 941 724  L 1053 674  L 1209.8 774.242914979757  L 1299.4 704  L 1389 774.242914979757  L 1389 834  L 941 834  " fill-rule="nonzero" fill="#169bd5" stroke="none" />
  </g>
</svg>