<?xml version="1.0" encoding="utf-8"?>
<svg version="1.1" xmlns:xlink="http://www.w3.org/1999/xlink" width="501px" height="215px" xmlns="http://www.w3.org/2000/svg">
  <g transform="matrix(1 0 0 1 -229 -477 )">
    <path d="M 229 477  L 730 477  L 730 692  L 229 692  L 229 477  " fill-rule="nonzero" fill="#cccccc" stroke="none" />
    <path d="M 244 492  L 715 492  L 715 677  L 244 677  L 244 492  " fill-rule="nonzero" fill="#ffffff" stroke="none" />
    <path d="M 505.645 541.5  C 496.615 541.5  489.52 534.405  489.52 525.375  C 489.52 516.345  496.615 509.25  505.645 509.25  C 514.675 509.25  521.77 516.345  521.77 525.375  C 521.77 534.405  514.675 541.5  505.645 541.5  " fill-rule="nonzero" fill="#cccccc" stroke="none" />
    <path d="M 250 672  L 250 576.3  L 365 532.8  L 526 627.197604790419  L 618 558.9  L 710 627.197604790419  L 710 672  L 250 672  " fill-rule="nonzero" fill="#169bd5" stroke="none" />
  </g>
</svg>