<?xml version="1.0" encoding="utf-8"?>
<svg version="1.1" xmlns:xlink="http://www.w3.org/1999/xlink" width="501px" height="218px" xmlns="http://www.w3.org/2000/svg">
  <g transform="matrix(1 0 0 1 -229 -940 )">
    <path d="M 229 940  L 730 940  L 730 1158  L 229 1158  L 229 940  " fill-rule="nonzero" fill="#cccccc" stroke="none" />
    <path d="M 244 955  L 715 955  L 715 1143  L 244 1143  L 244 955  " fill-rule="nonzero" fill="#ffffff" stroke="none" />
    <path d="M 505.87 1005.4  C 496.714 1005.4  489.52 998.206  489.52 989.05  C 489.52 979.894  496.714 972.7  505.87 972.7  C 515.026 972.7  522.22 979.894  522.22 989.05  C 522.22 998.206  515.026 1005.4  505.87 1005.4  " fill-rule="nonzero" fill="#cccccc" stroke="none" />
    <path d="M 250 1138  L 250 1040.65  L 365 996.4  L 526 1091.78922155689  L 618 1022.95  L 710 1091.78922155689  L 710 1138  L 250 1138  " fill-rule="nonzero" fill="#169bd5" stroke="none" />
  </g>
</svg>