<?xml version="1.0" encoding="utf-8"?>
<svg version="1.1" xmlns:xlink="http://www.w3.org/1999/xlink" width="19px" height="19px" viewBox="1571 714.5  19 19" xmlns="http://www.w3.org/2000/svg">
  <path d="M 1580.5 714.5  C 1585.82 714.5  1590 718.68  1590 724  C 1590 729.32  1585.82 733.5  1580.5 733.5  C 1575.18 733.5  1571 729.32  1571 724  C 1571 718.68  1575.18 714.5  1580.5 714.5  Z " fill-rule="nonzero" fill="#ffffff" stroke="none" />
  <path d="M 1580.5 715  C 1585.54 715  1589.5 718.96  1589.5 724  C 1589.5 729.04  1585.54 733  1580.5 733  C 1575.46 733  1571.5 729.04  1571.5 724  C 1571.5 718.96  1575.46 715  1580.5 715  Z " stroke-width="1" stroke="#797979" fill="none" />
  <path d="M 1580.5 728.75  C 1577.84 728.75  1575.75 726.66  1575.75 724  C 1575.75 721.34  1577.84 719.25  1580.5 719.25  C 1583.16 719.25  1585.25 721.34  1585.25 724  C 1585.25 726.66  1583.16 728.75  1580.5 728.75  " fill-rule="nonzero" fill="#797979" stroke="none" />
</svg>