<?xml version="1.0" encoding="utf-8"?>
<svg version="1.1" xmlns:xlink="http://www.w3.org/1999/xlink" width="19px" height="19px" viewBox="1453 715  19 19" xmlns="http://www.w3.org/2000/svg">
  <path d="M 1462.5 715  C 1467.82 715  1472 719.18  1472 724.5  C 1472 729.82  1467.82 734  1462.5 734  C 1457.18 734  1453 729.82  1453 724.5  C 1453 719.18  1457.18 715  1462.5 715  Z " fill-rule="nonzero" fill="#ffffff" stroke="none" />
  <path d="M 1462.5 715.5  C 1467.54 715.5  1471.5 719.46  1471.5 724.5  C 1471.5 729.54  1467.54 733.5  1462.5 733.5  C 1457.46 733.5  1453.5 729.54  1453.5 724.5  C 1453.5 719.46  1457.46 715.5  1462.5 715.5  Z " stroke-width="1" stroke="#797979" fill="none" />
  <path d="M 1462.5 729.25  C 1459.84 729.25  1457.75 727.16  1457.75 724.5  C 1457.75 721.84  1459.84 719.75  1462.5 719.75  C 1465.16 719.75  1467.25 721.84  1467.25 724.5  C 1467.25 727.16  1465.16 729.25  1462.5 729.25  " fill-rule="nonzero" fill="#797979" stroke="none" />
</svg>