<?xml version="1.0" encoding="utf-8"?>
<svg version="1.1" xmlns:xlink="http://www.w3.org/1999/xlink" width="20px" height="20px" xmlns="http://www.w3.org/2000/svg">
  <g transform="matrix(1 0 0 1 -1206 -936 )">
    <path d="M 1216 936  C 1221.6 936  1226 940.4  1226 946  C 1226 951.6  1221.6 956  1216 956  C 1210.4 956  1206 951.6  1206 946  C 1206 940.4  1210.4 936  1216 936  Z " fill-rule="nonzero" fill="#ff9900" stroke="none" />
    <path d="M 1216 936.5  C 1221.32 936.5  1225.5 940.68  1225.5 946  C 1225.5 951.32  1221.32 955.5  1216 955.5  C 1210.68 955.5  1206.5 951.32  1206.5 946  C 1206.5 940.68  1210.68 936.5  1216 936.5  Z " stroke-width="1" stroke="#797979" fill="none" />
  </g>
</svg>