<?xml version="1.0" encoding="utf-8"?>
<svg version="1.1" xmlns:xlink="http://www.w3.org/1999/xlink" width="20px" height="20px" xmlns="http://www.w3.org/2000/svg">
  <g transform="matrix(1 0 0 1 -1128 -935 )">
    <path d="M 1138 935  C 1143.6 935  1148 939.4  1148 945  C 1148 950.6  1143.6 955  1138 955  C 1132.4 955  1128 950.6  1128 945  C 1128 939.4  1132.4 935  1138 935  Z " fill-rule="nonzero" fill="#ff0000" stroke="none" />
    <path d="M 1138 935.5  C 1143.32 935.5  1147.5 939.68  1147.5 945  C 1147.5 950.32  1143.32 954.5  1138 954.5  C 1132.68 954.5  1128.5 950.32  1128.5 945  C 1128.5 939.68  1132.68 935.5  1138 935.5  Z " stroke-width="1" stroke="#797979" fill="none" />
  </g>
</svg>