<?xml version="1.0" encoding="utf-8"?>
<svg version="1.1" xmlns:xlink="http://www.w3.org/1999/xlink" width="20px" height="20px" xmlns="http://www.w3.org/2000/svg">
  <g transform="matrix(1 0 0 1 -1281 -936 )">
    <path d="M 1291 936  C 1296.6 936  1301 940.4  1301 946  C 1301 951.6  1296.6 956  1291 956  C 1285.4 956  1281 951.6  1281 946  C 1281 940.4  1285.4 936  1291 936  Z " fill-rule="nonzero" fill="#66cc99" stroke="none" />
    <path d="M 1291 936.5  C 1296.32 936.5  1300.5 940.68  1300.5 946  C 1300.5 951.32  1296.32 955.5  1291 955.5  C 1285.68 955.5  1281.5 951.32  1281.5 946  C 1281.5 940.68  1285.68 936.5  1291 936.5  Z " stroke-width="1" stroke="#797979" fill="none" />
  </g>
</svg>