<?xml version="1.0" encoding="utf-8"?>
<svg version="1.1" xmlns:xlink="http://www.w3.org/1999/xlink" width="32px" height="32px" xmlns="http://www.w3.org/2000/svg">
  <g transform="matrix(1 0 0 1 -1499 -2928 )">
    <path d="M 1515 2928.5  C 1523.68 2928.5  1530.5 2935.32  1530.5 2944  C 1530.5 2952.68  1523.68 2959.5  1515 2959.5  C 1506.32 2959.5  1499.5 2952.68  1499.5 2944  C 1499.5 2935.32  1506.32 2928.5  1515 2928.5  Z " fill-rule="nonzero" fill="#f3f3f3" stroke="none" />
    <path d="M 1515 2928.5  C 1523.68 2928.5  1530.5 2935.32  1530.5 2944  C 1530.5 2952.68  1523.68 2959.5  1515 2959.5  C 1506.32 2959.5  1499.5 2952.68  1499.5 2944  C 1499.5 2935.32  1506.32 2928.5  1515 2928.5  Z " stroke-width="1" stroke="#000000" fill="none" stroke-opacity="0.0470588235294118" />
  </g>
</svg>