<?xml version="1.0" encoding="utf-8"?>
<svg version="1.1" xmlns:xlink="http://www.w3.org/1999/xlink" width="24px" height="24px" xmlns="http://www.w3.org/2000/svg">
  <g transform="matrix(1 0 0 1 -1503 -2980 )">
    <path d="M 1515 2980.5  C 1521.44 2980.5  1526.5 2985.56  1526.5 2992  C 1526.5 2998.44  1521.44 3003.5  1515 3003.5  C 1508.56 3003.5  1503.5 2998.44  1503.5 2992  C 1503.5 2985.56  1508.56 2980.5  1515 2980.5  Z " fill-rule="nonzero" fill="#f3f3f3" stroke="none" />
    <path d="M 1515 2980.5  C 1521.44 2980.5  1526.5 2985.56  1526.5 2992  C 1526.5 2998.44  1521.44 3003.5  1515 3003.5  C 1508.56 3003.5  1503.5 2998.44  1503.5 2992  C 1503.5 2985.56  1508.56 2980.5  1515 2980.5  Z " stroke-width="1" stroke="#000000" fill="none" stroke-opacity="0.0470588235294118" />
  </g>
</svg>