<?xml version="1.0" standalone="no"?><!DOCTYPE svg PUBLIC "-//W3C//DTD SVG 1.1//EN" "http://www.w3.org/Graphics/SVG/1.1/DTD/svg11.dtd"><svg class="icon" width="16px" height="16.00px" viewBox="0 0 1024 1024" version="1.1" xmlns="http://www.w3.org/2000/svg"><path d="M270.41142875 987.77142875c-18.48 4.94857125-37.82857125-7.29142875-43.2-27.33714281L144.9828575 653.61142813c-5.37142875-20.03428594 5.25714281-40.32 23.74857094-45.26857126 18.48-4.94857125 37.82857125 7.29142875 43.2 27.33714282l82.21714312 306.81142875c5.37142875 20.04571406-5.25714281 40.32-23.74857187 45.28000031zM755.58857188 917.98857125c-6.61714313 1.77142875-13.66857187 3.33714281-21.18857157 4.59428625l-364.62857156 37.794285-112.2628575-382.39999969c113.06285719-63.39428531 162.65142844-131.8171425 148.77714281-205.24571437-16.22857125-60.20571469 10.62857156-129.3028575 74.16-146.32000031 63.5428575-17.02857188 131.95428563 27.22285688 148.89142875 90.40000031 0.36571406 0.7771425 10.00000031 68.11428562 0 159.91999969l70.17142875-33.16571344c13.16571469-3.53142844 79.32571406-18.36571406 130.6171425 24.49142812 40.20571406 33.6 56.97142875 90.72 49.81714313 169.75999969l-13.13142844 155.885715c0.26285719 30.28571437-22.81142812 100.59428531-111.22285687 124.28571375z m-21.37142907-66.0571425L415.77142812 885.92l-75.39428531-281.37142875c81.77142844-49.81714313 156.5371425-142.7428575 132.59428594-268.60571437a40.2628575 40.2628575 0 0 1 28.44571406-49.30285688c21.46285687-5.76 43.57714312 6.97142813 50.25142875 31.46285719 0.26285719 0.73142813 25.53142875 77.44000031-10.65142875 172.93714312a42.92571469 42.92571469 0 0 0 51.28000032 56.66285719l138.51428531-37.12000031c0.38857125-0.10285688 38.06857125-9.49714312 60.26285719 9.15428531 19.30285687 16.18285688 27.34857188 54.33142875 22.62857156 107.4628575l-13.80571406 169.7371425c0.01142812 0.34285688-0.41142844 37.9771425-53.9428575 52.32-4.42285687 1.18857188-9.14285719 2.2171425-11.72571375 2.67428625zM544.3428575 34.4a45.71428594 45.71428594 0 0 1 45.714285 45.71428594v45.71428593a45.71428594 45.71428594 0 1 1-91.42857094 0v-45.71428593a45.71428594 45.71428594 0 0 1 45.71428594-45.71428594zM200.31999969 284.13714312a45.71428594 45.71428594 0 0 1 64.29714281 6.75428532l28.76571469 35.53142906a45.71428594 45.71428594 0 1 1-71.05142906 57.54285656l-28.76571375-35.53142812a45.71428594 45.71428594 0 0 1 6.75428531-64.29714282zM302.40000031 98.62857125a45.71428594 45.71428594 0 0 1 61.82857125 18.9028575l21.46285688 40.36571437a45.71428594 45.71428594 0 1 1-80.73142875 42.92571375l-21.46285688-40.36571437a45.71428594 45.71428594 0 0 1 18.9028575-61.82857125z m483.54285656 43.70285719a45.71428594 45.71428594 0 0 1 16.73142844 62.44571437l-22.8571425 39.58857188a45.71428594 45.71428594 0 0 1-79.17714281-45.71428594l22.8571425-39.58857188a45.71428594 45.71428594 0 0 1 62.44571437-16.73142843z" /></svg>