<?xml version="1.0" standalone="no"?><!DOCTYPE svg PUBLIC "-//W3C//DTD SVG 1.1//EN" "http://www.w3.org/Graphics/SVG/1.1/DTD/svg11.dtd"><svg class="icon" width="16px" height="14.60px" viewBox="0 0 1122 1024" version="1.1" xmlns="http://www.w3.org/2000/svg"><path d="M959.639016 0.00905H160.879835A160.878835 160.878835 0 0 0 0 160.887885v532.909454a160.878835 160.878835 0 0 0 160.878835 160.877835h104.569893a29.35997 29.35997 0 1 0 0-58.71994H160.879835A103.766894 103.766894 0 0 1 57.111941 692.59034V160.887885A103.766894 103.766894 0 0 1 160.878835 58.72999H959.639016a103.766894 103.766894 0 0 1 103.765894 102.157895v532.909454A103.766894 103.766894 0 0 1 959.640016 797.160233H698.212284a29.35997 29.35997 0 0 0-22.522977 10.859988L561.063425 948.387078 446.035543 808.021221a29.35997 29.35997 0 1 0-43.839955 36.599963l137.953858 168.117828a29.35997 29.35997 0 0 0 22.522977 10.858988 29.35997 29.35997 0 0 0 22.522977-10.859988L713.898268 855.480173h247.349746A160.878835 160.878835 0 0 0 1122.126849 694.600338V160.887885A160.878835 160.878835 0 0 0 959.639016 0.00905z" fill="#707070" /><path d="M187.020808 427.140612a72.394926 72.394926 0 1 0 144.790852 0 72.394926 72.394926 0 1 0-144.789852 0zM486.657501 427.140612a72.394926 72.394926 0 1 0 144.789852 0 72.394926 72.394926 0 1 0-144.789852 0zM786.695193 427.140612a72.394926 72.394926 0 1 0 144.789852 0 72.394926 72.394926 0 1 0-144.789852 0z" fill="#707070" /></svg>