<?xml version="1.0" encoding="utf-8"?>
<svg version="1.1" xmlns:xlink="http://www.w3.org/1999/xlink" width="281px" height="104px" xmlns="http://www.w3.org/2000/svg">
  <g transform="matrix(1 0 0 1 -236 -943 )">
    <path d="M 236 943  L 517 943  L 517 1047  L 236 1047  L 236 943  " fill-rule="nonzero" fill="#cccccc" stroke="none" />
    <path d="M 243 950  L 510 950  L 510 1040  L 243 1040  L 243 950  " fill-rule="nonzero" fill="#ffffff" stroke="none" />
    <path d="M 389.92 974.2  C 385.552 974.2  382.12 970.768  382.12 966.4  C 382.12 962.032  385.552 958.6  389.92 958.6  C 394.288 958.6  397.72 962.032  397.72 966.4  C 397.72 970.768  394.288 974.2  389.92 974.2  " fill-rule="nonzero" fill="#cccccc" stroke="none" />
    <path d="M 246 1038  L 246 991.25  L 311.5 970  L 403.2 1019.12455516014  L 455.6 982.75  L 508 1019.12455516014  L 508 1038  L 246 1038  " fill-rule="nonzero" fill="#169bd5" stroke="none" />
  </g>
</svg>