<?xml version="1.0" encoding="utf-8"?>
<svg version="1.1" xmlns:xlink="http://www.w3.org/1999/xlink" width="40px" height="40px" xmlns="http://www.w3.org/2000/svg">
  <g transform="matrix(1 0 0 1 -243 -1858 )">
    <path d="M 263 1858.5  C 273.92 1858.5  282.5 1867.08  282.5 1878  C 282.5 1888.92  273.92 1897.5  263 1897.5  C 252.08 1897.5  243.5 1888.92  243.5 1878  C 243.5 1867.08  252.08 1858.5  263 1858.5  Z " fill-rule="nonzero" fill="#f3f3f3" stroke="none" />
    <path d="M 263 1858.5  C 273.92 1858.5  282.5 1867.08  282.5 1878  C 282.5 1888.92  273.92 1897.5  263 1897.5  C 252.08 1897.5  243.5 1888.92  243.5 1878  C 243.5 1867.08  252.08 1858.5  263 1858.5  Z " stroke-width="1" stroke="#000000" fill="none" stroke-opacity="0.0470588235294118" />
  </g>
</svg>