<?xml version="1.0" encoding="utf-8"?>
<svg version="1.1" xmlns:xlink="http://www.w3.org/1999/xlink" width="35px" height="35px" xmlns="http://www.w3.org/2000/svg">
  <g transform="matrix(1 0 0 1 -891 -386 )">
    <path d="M 21.46484375 21.46484375  C 23.3087940705128 19.6208934294872  24.2307692307692 17.4018429487179  24.2307692307692 14.8076923076923  C 24.2307692307692 12.2135416666667  23.3087940705128 9.99449118589743  21.46484375 8.15054086538461  C 19.6208934294872 6.30659054487179  17.4018429487179 5.38461538461539  14.8076923076923 5.38461538461539  C 12.2135416666667 5.38461538461539  9.99449118589744 6.30659054487179  8.15054086538461 8.15054086538461  C 6.3065905448718 9.99449118589743  5.38461538461539 12.2135416666667  5.38461538461539 14.8076923076923  C 5.38461538461539 17.4018429487179  6.3065905448718 19.6208934294872  8.15054086538461 21.46484375  C 9.99449118589744 23.3087940705128  12.2135416666667 24.2307692307692  14.8076923076923 24.2307692307692  C 17.4018429487179 24.2307692307692  19.6208934294872 23.3087940705128  21.46484375 21.46484375  Z M 34.2217548076923 30.4146634615385  C 34.7405849358974 30.9334935897436  35 31.5645032051282  35 32.3076923076923  C 35 33.036858974359  34.7335737179487 33.6678685897436  34.2007211538462 34.2007211538462  C 33.6678685897436 34.7335737179487  33.036858974359 35  32.3076923076923 35  C 31.5504807692308 35  30.9194711538462 34.7335737179487  30.4146634615385 34.2007211538462  L 23.2001201923077 27.0072115384615  C 20.6901041666667 28.7459935897436  17.8926282051282 29.6153846153846  14.8076923076923 29.6153846153846  C 12.802483974359 29.6153846153846  10.8849158653846 29.2262620192308  9.05498798076923 28.4480168269231  C 7.22506009615385 27.6697716346154  5.64753605769231 26.6180889423077  4.32241586538462 25.29296875  C 2.99729567307692 23.9678485576923  1.94561298076923 22.3903245192308  1.16736778846154 20.5603966346154  C 0.389122596153846 18.73046875  0 16.8129006410256  0 14.8076923076923  C 0 12.802483974359  0.389122596153846 10.8849158653846  1.16736778846154 9.05498798076923  C 1.94561298076923 7.22506009615384  2.99729567307692 5.64753605769231  4.32241586538462 4.32241586538461  C 5.64753605769231 2.99729567307692  7.22506009615385 1.94561298076923  9.05498798076923 1.16736778846154  C 10.8849158653846 0.389122596153845  12.802483974359 0  14.8076923076923 0  C 16.8129006410256 0  18.73046875 0.389122596153845  20.5603966346154 1.16736778846154  C 22.3903245192308 1.94561298076923  23.9678485576923 2.99729567307692  25.29296875 4.32241586538461  C 26.6180889423077 5.64753605769231  27.6697716346154 7.22506009615384  28.4480168269231 9.05498798076923  C 29.2262620192308 10.8849158653846  29.6153846153846 12.802483974359  29.6153846153846 14.8076923076923  C 29.6153846153846 17.8926282051282  28.7459935897436 20.6901041666667  27.0072115384615 23.2001201923077  L 34.2217548076923 30.4146634615385  Z " fill-rule="nonzero" fill="#000000" stroke="none" transform="matrix(1 0 0 1 891 386 )" />
  </g>
</svg>