<?xml version="1.0" encoding="utf-8"?>
<svg version="1.1" xmlns:xlink="http://www.w3.org/1999/xlink" width="24px" height="24px" xmlns="http://www.w3.org/2000/svg">
  <g transform="matrix(1 0 0 1 -876 -459 )">
    <path d="M 888 459  C 894.72 459  900 464.28  900 471  C 900 477.72  894.72 483  888 483  C 881.28 483  876 477.72  876 471  C 876 464.28  881.28 459  888 459  Z " fill-rule="nonzero" fill="#ffffff" stroke="none" />
    <path d="M 888 459.5  C 894.44 459.5  899.5 464.56  899.5 471  C 899.5 477.44  894.44 482.5  888 482.5  C 881.56 482.5  876.5 477.44  876.5 471  C 876.5 464.56  881.56 459.5  888 459.5  Z " stroke-width="1" stroke="#797979" fill="none" />
  </g>
</svg>