<svg t="1576115377671" class="icon" viewBox="0 0 1024 1024" version="1.1" xmlns="http://www.w3.org/2000/svg" p-id="1914" width="30" height="30"><path d="M984.064 459.776a115.7632 115.7632 0 0 0-124.928-38.741333l-161.28 49.322666-57.685333-113.322666a143.291733 143.291733 0 0 0 36.352-95.914667c0-79.872-65.024-144.896-144.896-144.896s-144.896 65.024-144.896 144.896c0 36.010667 12.970667 69.632 36.352 95.914667l-57.685334 113.322666-161.28-49.322666c-45.909333-14.165333-94.890667 1.194667-124.928 38.741333-29.866667 37.546667-33.792 88.746667-9.557333 130.901333l115.541333 191.829334c9.728 16.213333 30.72 21.333333 46.933334 11.605333s21.333333-30.72 11.605333-46.933333l-115.2-191.146667c-15.018667-26.282667-0.682667-47.786667 4.096-53.76 4.778667-5.973333 22.528-24.746667 51.541333-15.872l188.586667 57.685333c15.872 4.778667 32.938667-2.389333 40.448-17.066666l82.432-161.962667c7.509333-14.848 3.413333-32.768-9.898667-42.837333a76.219733 76.219733 0 0 1-30.72-61.098667c0-42.154667 34.304-76.629333 76.629334-76.629333 42.154667 0 76.629333 34.304 76.629333 76.629333 0 24.234667-11.264 46.421333-30.72 61.098667a34.133333 34.133333 0 0 0-9.898667 42.837333l82.432 161.962667c7.509333 14.848 24.576 22.016 40.448 17.066666l188.586667-57.685333c29.184-8.874667 46.762667 9.898667 51.541333 15.872 4.778667 5.973333 19.114667 27.477333 3.925334 53.930667L734.037333 909.312H262.826667c-18.773333 0-34.133333 15.36-34.133334 34.133333s15.36 34.133333 34.133334 34.133334h491.178666c12.288 0 23.552-6.656 29.696-17.237334l210.432-370.346666a115.882667 115.882667 0 0 0-10.069333-130.218667z" p-id="1915" fill="#f4ea29"></path></svg>