<svg t="1576119352737" class="icon" viewBox="0 0 1024 1024" version="1.1" xmlns="http://www.w3.org/2000/svg" p-id="3561" width="50" height="50"><path d="M657.114231 723.29528H389.427785L24.637268 168.053623h267.758696l364.718267 555.241657z" fill="#9ECFEF" p-id="3562"></path><path d="M363.345516 723.29528h267.686446l364.790517-555.241657h-267.758696l-364.718267 555.241657z" fill="#5FB0E5" p-id="3563"></path><path d="M9.703182 177.89408l29.889847-19.637564 238.598575 363.229916-29.889847 19.630339z" fill="#0686D8" p-id="3564"></path><path d="M277.498003 177.973555l29.897072-19.637564L474.899598 413.349778l-29.889847 19.637564z" fill="#0686D8" p-id="3565"></path><path d="M754.514528 502.780893l226.42444-344.430452 29.882622 19.652014-226.417215 344.423228z" fill="#0686D8" p-id="3566"></path><path d="M550.213053 406.160897L713.216397 158.299866l29.882622 19.652014-162.996119 247.861032z" fill="#0686D8" p-id="3567"></path><path d="M523.28596 723.258459m-207.801053 158.703565a261.472942 261.472942 0 1 0 415.602106-317.40713 261.472942 261.472942 0 1 0-415.602106 317.40713Z" fill="#D2E9F7" p-id="3568"></path><path d="M691.433006 723.29528a168.198123 168.198123 0 1 1-168.198123-168.198123 168.125873 168.125873 0 0 1 168.198123 168.198123z" fill="#FFFFFF" p-id="3569"></path><path d="M382.20278 964.465956a279.174204 279.174204 0 0 1-81.42581-72.250053l28.394271-21.675015a243.410428 243.410428 0 0 0 71.166302 63.002046z" fill="#0686D8" p-id="3570"></path><path d="M523.234883 1002.613984a278.957454 278.957454 0 0 1-68.05955-8.308756l8.670007-34.680025a243.482678 243.482678 0 1 0-162.92387-136.4081l-32.584773 14.450011a279.390955 279.390955 0 1 1 254.825936 164.80237z" fill="#0686D8" p-id="3571"></path><path d="M469.119594 838.100614a21.675016 21.675016 0 0 1-21.675016-25.070769l8.814506-55.70479-40.60453-39.159529a21.675016 21.675016 0 0 1 11.415509-37.064277l55.849291-8.814507 24.348268-50.575037a21.675016 21.675016 0 0 1 19.290764-12.354759 22.397516 22.397516 0 0 1 19.579764 11.849009l25.576519 50.575037 55.921541 7.225005A21.675016 21.675016 0 0 1 640.207719 715.275524l-39.954279 40.026529 10.259507 55.488041a21.675016 21.675016 0 0 1-31.067523 23.264517l-50.575037-25.576519-49.563536 26.87702a21.675016 21.675016 0 0 1-10.187257 2.745502zM460.955338 711.952021l25.648768 24.276018a21.675016 21.675016 0 0 1 6.430255 19.146264l-5.491004 34.824526 30.995273-17.123263a21.675016 21.675016 0 0 1 20.157765 0l31.501023 16.111762-6.647005-34.752275a21.675016 21.675016 0 0 1 5.996754-19.218515l24.926268-24.998518-34.969025-4.624003a21.675016 21.675016 0 0 1-16.473012-11.632259L527.425386 662.460735l-15.461511 31.862274a21.675016 21.675016 0 0 1-15.895012 12.065758z" fill="#0686D8" p-id="3572"></path><path d="M994.305228 500.476117a19.074014 19.074014 0 1 1-18.929514-19.074014 19.074014 19.074014 0 0 1 18.929514 19.074014z" fill="#5FB0E5" p-id="3573"></path><path d="M544.259649 225.275665m-19.074014 0a19.074014 19.074014 0 1 0 38.148028 0 19.074014 19.074014 0 1 0-38.148028 0Z" fill="#5FB0E5" p-id="3574"></path><path d="M722.283779 71.238552m-29.767022 0a29.767022 29.767022 0 1 0 59.534044 0 29.767022 29.767022 0 1 0-59.534044 0Z" fill="#5FB0E5" p-id="3575"></path><path d="M82.798561 416.015805a24.203768 24.203768 0 1 1-24.203768-24.131518 24.131518 24.131518 0 0 1 24.203768 24.131518zM351.857758 56.210541a36.775277 36.775277 0 1 1-36.775277-36.703027 36.775277 36.775277 0 0 1 36.775277 36.703027z" fill="#5FB0E5" p-id="3576"></path></svg>