<svg t="1576119373100" class="icon" viewBox="0 0 1024 1024" version="1.1" xmlns="http://www.w3.org/2000/svg" p-id="3828" width="50" height="50"><path d="M234.527811 299.459408h75.739645V0h-2.075267a73.664379 73.664379 0 0 0-73.664378 73.664379zM330.368757 0h75.739645v358.339408h-75.739645zM617.891598 0h75.739645v358.339408h-75.739645zM713.717396 299.459408h75.739645V73.664379A73.664379 73.664379 0 0 0 715.807811 0H713.717396z" fill="#2C2570" p-id="3829"></path><path d="M597.790296 437.123787V0h-75.739645v424.823669c-3.332544-0.106036-6.680237-0.181775-10.043077-0.181776s-6.710533 0.07574-10.058225 0.181776V0h-75.739645v437.123787C302.511716 474.024142 212.320947 588.618225 212.320947 724.313373 212.320947 889.834793 346.486154 1024 512.007574 1024s299.671479-134.165207 299.671479-299.686627c0-135.68-90.190769-250.289231-213.888757-287.189586z m72.55858 445.546035a223.931834 223.931834 0 1 1 65.590532-158.356449 222.462485 222.462485 0 0 1-65.590532 158.356449z" fill="#2C2570" p-id="3830"></path><path d="M512.007574 724.313373m-201.72497 0a201.72497 201.72497 0 1 0 403.44994 0 201.72497 201.72497 0 1 0-403.44994 0Z" fill="#FF8E58" p-id="3831"></path></svg>