<?xml version="1.0" encoding="utf-8"?>
<svg version="1.1" xmlns:xlink="http://www.w3.org/1999/xlink" width="29px" height="20px" xmlns="http://www.w3.org/2000/svg">
  <g transform="matrix(1 0 0 1 -597 -523 )">
    <path d="M 7.58243902439024 7.69230769230769  L 3.01317073170732 7.69230769230769  L 11.8263414634146 15.6850961538462  L 7.58243902439024 7.69230769230769  Z M 9.56292682926829 7.69230769230769  L 14.5 16.9711538461538  L 19.4370731707317 7.69230769230769  L 9.56292682926829 7.69230769230769  Z M 2.73024390243902 6.15384615384615  L 7.62487804878049 6.15384615384615  L 10.5107317073171 1.53846153846154  L 6.80439024390244 1.53846153846154  L 2.73024390243902 6.15384615384615  Z M 21.4175609756098 7.69230769230769  L 17.1736585365854 15.6850961538462  L 25.9868292682927 7.69230769230769  L 21.4175609756098 7.69230769230769  Z M 12.5619512195122 1.53846153846154  L 9.67609756097561 6.15384615384615  L 19.3239024390244 6.15384615384615  L 16.4380487804878 1.53846153846154  L 12.5619512195122 1.53846153846154  Z M 18.4892682926829 1.53846153846154  L 21.3751219512195 6.15384615384615  L 26.269756097561 6.15384615384615  L 22.1956097560976 1.53846153846154  L 18.4892682926829 1.53846153846154  Z M 22.6482926829268 0  C 22.959512195122 0  23.2 0.104166666666665  23.369756097561 0.3125  L 28.8019512195122 6.46634615384615  C 28.9339837398374 6.61057692307692  28.9952845528455 6.77684294871795  28.9858536585366 6.96514423076923  C 28.9764227642276 7.15344551282051  28.8962601626016 7.31570512820513  28.7453658536585 7.45192307692308  L 15.1648780487805 19.7596153846154  C 14.9951219512195 19.9198717948718  14.7734959349594 20  14.5 20  C 14.2265040650407 20  14.0048780487805 19.9198717948718  13.8351219512195 19.7596153846154  L 0.254634146341463 7.45192307692308  C 0.103739837398374 7.31570512820513  0.0235772357723577 7.15344551282051  0.0141463414634146 6.96514423076923  C 0.00471544715447154 6.77684294871795  0.0660162601626016 6.61057692307692  0.198048780487805 6.46634615384615  L 5.63024390243902 0.3125  C 5.8 0.104166666666665  6.04048780487805 0  6.35170731707317 0  L 22.6482926829268 0  Z " fill-rule="nonzero" fill="#000000" stroke="none" transform="matrix(1 0 0 1 597 523 )" />
  </g>
</svg>