<?xml version="1.0" encoding="utf-8"?>
<svg version="1.1" xmlns:xlink="http://www.w3.org/1999/xlink" width="36px" height="34px" xmlns="http://www.w3.org/2000/svg">
  <g transform="matrix(1 0 0 1 -927 -660 )">
    <path d="M 927 660  L 963 660  L 963 694  L 927 694  L 927 660  " fill-rule="nonzero" fill="#cccccc" stroke="none" />
    <path d="M 929 662  L 961 662  L 961 692  L 929 692  L 929 662  " fill-rule="nonzero" fill="#ffffff" stroke="none" />
    <path d="M 948.27 670.2  C 946.842 670.2  945.72 669.078  945.72 667.65  C 945.72 666.222  946.842 665.1  948.27 665.1  C 949.698 665.1  950.82 666.222  950.82 667.65  C 950.82 669.078  949.698 670.2  948.27 670.2  " fill-rule="nonzero" fill="#cccccc" stroke="none" />
    <path d="M 930 691  L 930 675.6  L 937.5 668.6  L 948 675.133333333333  L 954 672.8  L 960 675.133333333333  L 960 691  L 930 691  " fill-rule="nonzero" fill="#169bd5" stroke="none" />
  </g>
</svg>