<svg t="1575981969879" class="icon" viewBox="0 0 1024 1024" version="1.1" xmlns="http://www.w3.org/2000/svg" p-id="2062" width="90" height="90"><path d="M5 635.1h220.2l-29.4-12.6-91.4-39.1v-84.2H5L16.7 511l58.4 59.1-57.8 52.4z" fill="#F7B249" p-id="2063"></path><path d="M104.4 439.8v143.6h808.4V439.8z" fill="#FACD89" p-id="2064"></path><path d="M942.1 570.1l58.4-59.1 11.7-11.8h-99.4v84.2l-91.4 39.1-29.4 12.6h220.2l-12.3-12.6z" fill="#F7B249" p-id="2065"></path><path d="M879.7 584.9h-88.6v51.7L912 584.9zM103.5 584.9l120.8 51.7v-51.7h-88.6z" fill="#595757" p-id="2066"></path><path d="M596.4 740l-87.8-25.8-87.8 25.8-59.9-69.2-87.8-25.8-13-90.6-59.9-69.2 38-83.2-13-90.6 77-49.5 38-83.2h91.5l77-49.5 77 49.5h91.5l38 83.2 77 49.5-13 90.6 38 83.2-59.9 69.2-13 90.6-87.8 25.8-60.1 69.2zM282.1 637.2l84.4 24.8 57.6 66.5 84.4-24.8 84.4 24.8 57.6-66.5 84.4-24.8 12.5-87.1 57.6-66.5-36.6-80.1 12.5-87.1-74-47.6-36.6-80.1h-88l-74-47.6-74 47.6h-88L310 268.9l-74 47.6 12.5 87.1-36.6 80.1 57.6 66.5 12.6 87z" fill="#FACD89" p-id="2067"></path><path d="M508.6 645.8c-116.4 0-211.1-94.7-211.1-211.1s94.7-211.1 211.1-211.1c116.4 0 211 94.7 211 211.1s-94.6 211.1-211 211.1z m0-412.1c-110.9 0-201.1 90.2-201.1 201.1 0 110.9 90.2 201.1 201.1 201.1 110.9 0 201-90.2 201-201.1 0-110.9-90.1-201.1-201-201.1z" fill="#FACD89" p-id="2068"></path></svg>