<?xml version="1.0" encoding="utf-8"?>
<svg version="1.1" xmlns:xlink="http://www.w3.org/1999/xlink" width="114px" height="106px" xmlns="http://www.w3.org/2000/svg">
  <g transform="matrix(1 0 0 1 -717 -2008 )">
    <path d="M 717 2008  L 831 2008  L 831 2114  L 717 2114  L 717 2008  " fill-rule="nonzero" fill="#cccccc" stroke="none" />
    <path d="M 724 2015  L 824 2015  L 824 2107  L 724 2107  L 724 2015  " fill-rule="nonzero" fill="#ffffff" stroke="none" />
    <path d="M 784.23 2039.8  C 779.778 2039.8  776.28 2036.302  776.28 2031.85  C 776.28 2027.398  779.778 2023.9  784.23 2023.9  C 788.682 2023.9  792.18 2027.398  792.18 2031.85  C 792.18 2036.302  788.682 2039.8  784.23 2039.8  " fill-rule="nonzero" fill="#cccccc" stroke="none" />
    <path d="M 727 2105  L 727 2057.15  L 750.75 2035.4  L 784 2056.46315789474  L 803 2048.45  L 822 2056.46315789474  L 822 2105  L 727 2105  " fill-rule="nonzero" fill="#169bd5" stroke="none" />
  </g>
</svg>