<?xml version="1.0" encoding="utf-8"?>
<svg version="1.1" xmlns:xlink="http://www.w3.org/1999/xlink" width="49px" height="53px" xmlns="http://www.w3.org/2000/svg">
  <g transform="matrix(1 0 0 1 -1797 -430 )">
    <path d="M 1821.5 430  C 1835.22 430  1846 441.66  1846 456.5  C 1846 471.34  1835.22 483  1821.5 483  C 1807.78 483  1797 471.34  1797 456.5  C 1797 441.66  1807.78 430  1821.5 430  Z " fill-rule="nonzero" fill="#ffffff" stroke="none" />
    <path d="M 1821.5 430.5  C 1834.94 430.5  1845.5 441.94  1845.5 456.5  C 1845.5 471.06  1834.94 482.5  1821.5 482.5  C 1808.06 482.5  1797.5 471.06  1797.5 456.5  C 1797.5 441.94  1808.06 430.5  1821.5 430.5  Z " stroke-width="1" stroke="#797979" fill="none" />
  </g>
</svg>