<?xml version="1.0" encoding="utf-8"?>
<svg version="1.1" xmlns:xlink="http://www.w3.org/1999/xlink" width="12px" height="12px" viewBox="1542 966  12 12" xmlns="http://www.w3.org/2000/svg">
  <path d="M 1548 966  C 1551.36 966  1554 968.64  1554 972  C 1554 975.36  1551.36 978  1548 978  C 1544.64 978  1542 975.36  1542 972  C 1542 968.64  1544.64 966  1548 966  Z " fill-rule="nonzero" fill="#ffffff" stroke="none" />
  <path d="M 1548 966.5  C 1551.08 966.5  1553.5 968.92  1553.5 972  C 1553.5 975.08  1551.08 977.5  1548 977.5  C 1544.92 977.5  1542.5 975.08  1542.5 972  C 1542.5 968.92  1544.92 966.5  1548 966.5  Z " stroke-width="1" stroke="#797979" fill="none" />
  <path d="M 1548 975  C 1546.32 975  1545 973.68  1545 972  C 1545 970.32  1546.32 969  1548 969  C 1549.68 969  1551 970.32  1551 972  C 1551 973.68  1549.68 975  1548 975  " fill-rule="nonzero" fill="#797979" stroke="none" />
</svg>