<?xml version="1.0" encoding="utf-8"?>
<svg version="1.1" xmlns:xlink="http://www.w3.org/1999/xlink" width="12px" height="12px" viewBox="1542 1883  12 12" xmlns="http://www.w3.org/2000/svg">
  <path d="M 1548 1883  C 1551.36 1883  1554 1885.64  1554 1889  C 1554 1892.36  1551.36 1895  1548 1895  C 1544.64 1895  1542 1892.36  1542 1889  C 1542 1885.64  1544.64 1883  1548 1883  Z " fill-rule="nonzero" fill="#ffffff" stroke="none" />
  <path d="M 1548 1883.5  C 1551.08 1883.5  1553.5 1885.92  1553.5 1889  C 1553.5 1892.08  1551.08 1894.5  1548 1894.5  C 1544.92 1894.5  1542.5 1892.08  1542.5 1889  C 1542.5 1885.92  1544.92 1883.5  1548 1883.5  Z " stroke-width="1" stroke="#797979" fill="none" />
  <path d="M 1548 1892  C 1546.32 1892  1545 1890.68  1545 1889  C 1545 1887.32  1546.32 1886  1548 1886  C 1549.68 1886  1551 1887.32  1551 1889  C 1551 1890.68  1549.68 1892  1548 1892  " fill-rule="nonzero" fill="#797979" stroke="none" />
</svg>