<?xml version="1.0" encoding="utf-8"?>
<svg version="1.1" xmlns:xlink="http://www.w3.org/1999/xlink" width="12px" height="12px" viewBox="3522 1883  12 12" xmlns="http://www.w3.org/2000/svg">
  <path d="M 3528 1883  C 3531.36 1883  3534 1885.64  3534 1889  C 3534 1892.36  3531.36 1895  3528 1895  C 3524.64 1895  3522 1892.36  3522 1889  C 3522 1885.64  3524.64 1883  3528 1883  Z " fill-rule="nonzero" fill="#ffffff" stroke="none" />
  <path d="M 3528 1883.5  C 3531.08 1883.5  3533.5 1885.92  3533.5 1889  C 3533.5 1892.08  3531.08 1894.5  3528 1894.5  C 3524.92 1894.5  3522.5 1892.08  3522.5 1889  C 3522.5 1885.92  3524.92 1883.5  3528 1883.5  Z " stroke-width="1" stroke="#797979" fill="none" />
  <path d="M 3528 1892  C 3526.32 1892  3525 1890.68  3525 1889  C 3525 1887.32  3526.32 1886  3528 1886  C 3529.68 1886  3531 1887.32  3531 1889  C 3531 1890.68  3529.68 1892  3528 1892  " fill-rule="nonzero" fill="#797979" stroke="none" />
</svg>