<?xml version="1.0" encoding="utf-8"?>
<svg version="1.1" xmlns:xlink="http://www.w3.org/1999/xlink" width="12px" height="12px" viewBox="3464 1883  12 12" xmlns="http://www.w3.org/2000/svg">
  <path d="M 3470 1883  C 3473.36 1883  3476 1885.64  3476 1889  C 3476 1892.36  3473.36 1895  3470 1895  C 3466.64 1895  3464 1892.36  3464 1889  C 3464 1885.64  3466.64 1883  3470 1883  Z " fill-rule="nonzero" fill="#ffffff" stroke="none" />
  <path d="M 3470 1883.5  C 3473.08 1883.5  3475.5 1885.92  3475.5 1889  C 3475.5 1892.08  3473.08 1894.5  3470 1894.5  C 3466.92 1894.5  3464.5 1892.08  3464.5 1889  C 3464.5 1885.92  3466.92 1883.5  3470 1883.5  Z " stroke-width="1" stroke="#797979" fill="none" />
  <path d="M 3470 1892  C 3468.32 1892  3467 1890.68  3467 1889  C 3467 1887.32  3468.32 1886  3470 1886  C 3471.68 1886  3473 1887.32  3473 1889  C 3473 1890.68  3471.68 1892  3470 1892  " fill-rule="nonzero" fill="#797979" stroke="none" />
</svg>